/* XPM */
static char * jokecoin64_xpm[] = {
"48 48 44 1",
" 	c None",
".	c #57007F",
"+	c #AE9FBC",
"@	c #EBE8EE",
"#	c #D8D2DE",
"$	c #BBAFC7",
"%	c #FFFFFF",
"&	c #EAE7ED",
"*	c #BBAFC6",
"=	c #E9E7EC",
"-	c #E7E4EB",
";	c #BEB1C9",
">	c #E7E3EA",
",	c #C8BED1",
"'	c #E3DEE8",
")	c #E4E0E9",
"!	c #E1DAE5",
"~	c #6A3D8A",
"{	c #663588",
"]	c #7A5995",
"^	c #CCC3D4",
"/	c #DCD4E2",
"(	c #E1DBE6",
"_	c #FDFDFE",
":	c #D7CFDE",
"<	c #E1DCE6",
"[	c #CFC8D6",
"}	c #BCB1C7",
"|	c #FEFDFE",
"1	c #7D5E98",
"2	c #CEC6D6",
"3	c #E0DAE5",
"4	c #622E86",
"5	c #EEEAF0",
"6	c #B5A8C2",
"7	c #5E2183",
"8	c #A494B4",
"9	c #B8ADC3",
"0	c #B6ACC2",
"a	c #B1A3BE",
"b	c #A99AB8",
"c	c #9C89AD",
"d	c #744E91",
"e	c #57017F",
"................................................",
"...................+@@@@@@@@@@#.................",
"...................$%%%%%%%%%%&.................",
"...................$%%%%%%%%%%&.................",
"...................$%%%%%%%%%%&.................",
"...................$%%%%%%%%%%&.................",
"...................$%%%%%%%%%%&.................",
"...................$%%%%%%%%%%&.................",
"...................$%%%%%%%%%%&.................",
"...................$%%%%%%%%%%&.................",
"...................$%%%%%%%%%%&.................",
"...................$%%%%%%%%%%&.................",
"...................$%%%%%%%%%%&.................",
"...................$%%%%%%%%%%&.................",
"...................$%%%%%%%%%%&.................",
"...................$%%%%%%%%%%&.................",
"...................$%%%%%%%%%%&.................",
"...................$%%%%%%%%%%&.................",
"...................$%%%%%%%%%%&.................",
"...................$%%%%%%%%%%&.................",
"...................$%%%%%%%%%%&.................",
"...................$%%%%%%%%%%&.................",
"...................$%%%%%%%%%%&.................",
"...................$%%%%%%%%%%&.................",
"...................$%%%%%%%%%%&.................",
"...................*%%%%%%%%%%&.................",
"...................*%%%%%%%%%%&.................",
"...................*%%%%%%%%%%&.................",
"...................*%%%%%%%%%%&.................",
"...................*%%%%%%%%%%&.................",
"...................*%%%%%%%%%%&.................",
"...................*%%%%%%%%%%=.................",
"...................$%%%%%%%%%%-.................",
"...................;%%%%%%%%%%>.................",
"...................,%%%%%%%%%%'.................",
"...................)%%%%%%%%%%!.................",
"...............~{]^%%%%%%%%%%%/.................",
"...............(_%%%%%%%%%%%%%:.................",
"...............<%%%%%%%%%%%%%%[.................",
"...............<%%%%%%%%%%%%%%}.................",
"...............<%%%%%%%%%%%%%|1.................",
"...............(%%%%%%%%%%%%%2..................",
"...............(%%%%%%%%%%%%34..................",
"...............(%%%%%%%%%%567...................",
"...............8999990abcde.....................",
"................................................",
"................................................",
"................................................"};
