/* XPM */
static char * jokecoin16_xpm[] = {
"16 16 134 2",
"  	c None",
". 	c #FFFFFF",
"+ 	c #FFFFFF",
"@ 	c #E0E0E6",
"# 	c #BAB7BF",
"$ 	c #C3BDCD",
"% 	c #EBE6F0",
"& 	c #F2FFF2",
"* 	c #AAFF55",
"= 	c #E3E3E3",
"- 	c #AEACB4",
"; 	c #928F9A",
"> 	c #7F7B86",
", 	c #696473",
"' 	c #575065",
") 	c #71638B",
"! 	c #867A9E",
"~ 	c #988EAD",
"{ 	c #A89EB9",
"] 	c #BCB6CA",
"^ 	c #E3E3EA",
"/ 	c #B1AEB6",
"( 	c #5A5263",
"_ 	c #433756",
": 	c #524371",
"< 	c #524273",
"[ 	c #544477",
"} 	c #514072",
"| 	c #564477",
"1 	c #5A4A7B",
"2 	c #786A94",
"3 	c #BDB5C9",
"4 	c #B1AEB6",
"5 	c #4B4555",
"6 	c #6C5E89",
"7 	c #BAB2C8",
"8 	c #4D4558",
"9 	c #3C334C",
"0 	c #574778",
"a 	c #6C5E8A",
"b 	c #4D475A",
"c 	c #352D41",
"d 	c #5D4D7C",
"e 	c #352E42",
"f 	c #362E43",
"g 	c #5A4A7A",
"h 	c #AFADB5",
"i 	c #4D4659",
"j 	c #362E44",
"k 	c #5C4B7C",
"l 	c #6C5D88",
"m 	c #B9B1C7",
"n 	c #C0BDC4",
"o 	c #625B6D",
"p 	c #332A3F",
"q 	c #423758",
"r 	c #7D7095",
"s 	c #C9C5D3",
"t 	c #FFFFFF",
"u 	c #9F99A4",
"v 	c #4D4659",
"w 	c #31293F",
"x 	c #312A3E",
"y 	c #5E5274",
"z 	c #AEA5BF",
"A 	c #E6FFE6",
"B 	c #FFFFFF",
"C 	c #A39FA9",
"D 	c #686271",
"E 	c #322A40",
"F 	c #352C41",
"G 	c #342D41",
"H 	c #3E3453",
"I 	c #7D7197",
"J 	c #B1A8C1",
"K 	c #FFFFFF",
"L 	c #80FF80",
"M 	c #C4C4CB",
"N 	c #8C8793",
"O 	c #5C5668",
"P 	c #73678C",
"Q 	c #9E94B4",
"R 	c #CDC7D7",
"S 	c #FFFFEA",
"T 	c #BDBAC3",
"U 	c #C3BDCE",
"V 	c #EDFFED",
"W 	c #453A5A",
"X 	c #5E4D80",
"Y 	c #8C80A4",
"Z 	c #A69DB8",
"` 	c #A69CB8",
" .	c #9A8FAF",
"..	c #645484",
"+.	c #5B4A7B",
"@.	c #5A4A79",
"#.	c #71638D",
"$.	c #7C7096",
"%.	c #796B93",
"&.	c #A198B4",
"*.	c #ABA3BC",
"=.	c #594D71",
"-.	c #A49AB7",
";.	c #A59CB6",
">.	c #786B93",
",.	c #5C4C7C",
"'.	c #C1BBCD",
").	c #3C334C",
"!.	c #675A83",
"~.	c #7C6F96",
"{.	c #7A6D94",
"].	c #A39AB5",
"^.	c #AAA1BB",
"/.	c #2F273D",
"(.	c #9894A0",
"_.	c #B4ADC2",
":.	c #A399B6",
"<.	c #968BAB",
"[.	c #60507F",
"}.	c #30283D",
"|.	c #99959F",
"1.	c #625A70",
"2.	c #44365D",
"3.	c #544473",
"4.	c #322A40",
"5.	c #918D99",
"6.	c #5D5767",
"7.	c #322B40",
"8.	c #3A3149",
"9.	c #423855",
"0.	c #423A4E",
"a.	c #3C3549",
"b.	c #383045",
"c.	c #372F43",
"} } } } } }  .R R R 2 } } } } } ",
"} } } } } } m . . . Y } } } } } ",
"} } } } } } m . . . Y } } } } } ",
"} } } } } } m . . . Y } } } } } ",
"} } } } } } m . . . Y } } } } } ",
"} } } } } } m . . . Y } } } } } ",
"} } } } } } m . . . Y } } } } } ",
"} } } } } } m . . . Y } } } } } ",
"} } } } } } m . . . Y } } } } } ",
"} } } } } } m . . . Y } } } } } ",
"} } } } } } m . . . Y } } } } } ",
"} } } } } } U . . . Y } } } } } ",
"} } } } } R . . . . Y } } } } } ",
"} } } } } . . . . . ..} } } } } ",
"} } } } } @ % % @ <.} } } } } } ",
"} } } } } } } } } } } } } } } } "};
