/* XPM */
static char * jokecoin32_xpm[] = {
"32 32 28 1",
" 	c None",
".	c #57007F",
"+	c #907CA5",
"@	c #7A5C94",
"#	c #FFFFFF",
"$	c #C7C0D0",
"%	c #C6BECF",
"&	c #C4BCCE",
"*	c #7A5A95",
"=	c #C1B6CB",
"-	c #A697B5",
";	c #B3A7BF",
">	c #EAE7ED",
",	c #BCB0C7",
"'	c #ECE9EF",
")	c #B5A9C1",
"!	c #9B88AC",
"~	c #EBE7EE",
"{	c #58037F",
"]	c #EDEBF0",
"^	c #7D6197",
"/	c #C3BACC",
"(	c #D1CCD8",
"_	c #D1CBD8",
":	c #D0CAD7",
"<	c #BEB4C9",
"[	c #9E8CAF",
"}	c #5B1781",
".............+++++++@...........",
".............#######$...........",
".............#######$...........",
".............#######$...........",
".............#######$...........",
".............#######$...........",
".............#######$...........",
".............#######$...........",
".............#######$...........",
".............#######$...........",
".............#######$...........",
".............#######$...........",
".............#######$...........",
".............#######$...........",
".............#######$...........",
".............#######$...........",
".............#######$...........",
".............#######$...........",
".............#######$...........",
".............#######$...........",
".............#######$...........",
".............#######%...........",
".............#######&...........",
"............*#######=...........",
"..........-;>#######,...........",
"..........'#########)...........",
"..........'#########!...........",
"..........'########~{...........",
"..........'#######]^............",
"........../(((_:<[}.............",
"................................",
"................................"};
