<?xml version="1.0" encoding="UTF-8" standalone="no"?>
<svg
   id="ic_joke"
   width="24"
   height="24"
   viewBox="0 0 24 24"
   version="1.1"
   sodipodi:docname="ic-coin-joke.svg"
   inkscape:version="1.1 (c68e22c387, 2021-05-23)"
   xmlns:inkscape="http://www.inkscape.org/namespaces/inkscape"
   xmlns:sodipodi="http://sodipodi.sourceforge.net/DTD/sodipodi-0.dtd"
   xmlns="http://www.w3.org/2000/svg"
   xmlns:svg="http://www.w3.org/2000/svg">
  <sodipodi:namedview
     id="namedview12"
     pagecolor="#ffffff"
     bordercolor="#666666"
     borderopacity="1.0"
     inkscape:pageshadow="2"
     inkscape:pageopacity="0.0"
     inkscape:pagecheckerboard="0"
     showgrid="false"
     inkscape:zoom="34.666667"
     inkscape:cx="12"
     inkscape:cy="9.3605769"
     inkscape:window-width="1920"
     inkscape:window-height="1017"
     inkscape:window-x="-8"
     inkscape:window-y="-8"
     inkscape:window-maximized="1"
     inkscape:current-layer="ic_joke" />
  <defs
     id="defs4">
    <style
       type="text/css"
       id="style2">
            .cls-1{fill:#5c4b7d}.cls-2{fill:none}
        </style>
  </defs>
  <g
     id="Group_8935"
     data-name="Group 8935">
    <g
       id="Group_8934"
       data-name="Group 8934">
      <path
         id="Path_18928"
         d="M 12,2 A 10,10 0 1 0 22,12 10,10 0 0 0 12,2 Z m 0,19.25 A 9.25,9.25 0 1 1 21.25,12 9.25,9.25 0 0 1 12,21.25 Z"
         class="cls-1"
         data-name="Path 18928" />
      <path
         id="Path_18929"
         d="M 12,3.5 C 4.4267821,3.5 0.63547307,12.655678 5.9898977,18.010102 11.344322,23.364527 20.5,19.573218 20.5,12 20.5,7.3055796 16.69442,3.5 12,3.5 Z"
         class="cls-1"
         data-name="Path 18929"
         sodipodi:nodetypes="ssss" />
    </g>
  </g>
  <path
     id="Rectangle_4543"
     d="M0 0h24v24H0z"
     class="cls-2"
     data-name="Rectangle 4543" />
  <text
     xml:space="preserve"
     style="font-style:normal;font-variant:normal;font-weight:normal;font-stretch:normal;font-size:18.6667px;line-height:1.25;font-family:Impact;-inkscape-font-specification:'Impact, Normal';font-variant-ligatures:normal;font-variant-caps:normal;font-variant-numeric:normal;font-variant-east-asian:normal;fill:#ffffff"
     x="8.6826925"
     y="19.26923"
     id="text1305"><tspan
       sodipodi:role="line"
       id="tspan1303"
       x="8.6826925"
       y="19.26923">J</tspan></text>
</svg>
