<?xml version="1.0" encoding="UTF-8" standalone="no"?>
<svg
   xmlns:dc="http://purl.org/dc/elements/1.1/"
   xmlns:cc="http://creativecommons.org/ns#"
   xmlns:rdf="http://www.w3.org/1999/02/22-rdf-syntax-ns#"
   xmlns:svg="http://www.w3.org/2000/svg"
   xmlns="http://www.w3.org/2000/svg"
   xmlns:sodipodi="http://sodipodi.sourceforge.net/DTD/sodipodi-0.dtd"
   xmlns:inkscape="http://www.inkscape.org/namespaces/inkscape"
   id="ic_empty_transactions"
   width="100"
   height="100"
   viewBox="0 0 100 100"
   version="1.1"
   sodipodi:docname="img-empty-transactions.svg"
   inkscape:version="0.92.4 (5da689c313, 2019-01-14)">
  <metadata
     id="metadata24">
    <rdf:RDF>
      <cc:Work
         rdf:about="">
        <dc:format>image/svg+xml</dc:format>
        <dc:type
           rdf:resource="http://purl.org/dc/dcmitype/StillImage" />
      </cc:Work>
    </rdf:RDF>
  </metadata>
  <sodipodi:namedview
     pagecolor="#ffffff"
     bordercolor="#666666"
     borderopacity="1"
     objecttolerance="10"
     gridtolerance="10"
     guidetolerance="10"
     inkscape:pageopacity="0"
     inkscape:pageshadow="2"
     inkscape:window-width="1920"
     inkscape:window-height="1008"
     id="namedview22"
     showgrid="false"
     inkscape:zoom="6.675088"
     inkscape:cx="33.530955"
     inkscape:cy="49.635298"
     inkscape:window-x="0"
     inkscape:window-y="0"
     inkscape:window-maximized="1"
     inkscape:current-layer="Group_9014" />
  <defs
     id="defs4">
    <style
       type="text/css"
       id="style2">
            .cls-1{fill:#d6d6d6}.cls-2{fill:#666}.cls-3{fill:none}
        </style>
  </defs>
  <g
     id="Group_9015"
     data-name="Group 9015">
    <path
       id="Path_18970"
       d="M50 26a24 24 0 1 0 24 24 24 24 0 0 0-24-24zm0 42a18 18 0 1 1 18-18 18 18 0 0 1-18 18z"
       class="cls-1"
       data-name="Path 18970" />
    <g
       id="Group_9014"
       data-name="Group 9014">
      <g
         id="Group_9013"
         data-name="Group 9013">
        <path
           id="Path_18972"
           d="M50 31a19 19 0 1 0 19 19 19.021 19.021 0 0 0-19-19zm0 36a17 17 0 1 1 17-17 17.019 17.019 0 0 1-17 17z"
           class="cls-2"
           data-name="Path 18972" />
        <path
           id="Rectangle_4664"
           d="M0 0h2v4H0z"
           class="cls-2"
           data-name="Rectangle 4664"
           transform="translate(83 56)" />
        <path
           id="Rectangle_4665"
           d="M0 0h2v8H0z"
           class="cls-2"
           data-name="Rectangle 4665"
           transform="translate(83 44)" />
        <path
           id="Rectangle_4666"
           d="M0 0h2v8H0z"
           class="cls-2"
           data-name="Rectangle 4666"
           transform="translate(15 48)" />
        <path
           id="Rectangle_4667"
           d="M0 0h2v4H0z"
           class="cls-2"
           data-name="Rectangle 4667"
           transform="translate(15 40)" />
        <g
           id="g67">
          <path
             data-name="Path 18973"
             class="cls-2"
             d="M95.162 71H85v-7h-2v9h7.838L76 90.456 61.162 73H68v-2h-4.461a24.989 24.989 0 0 0-22.4-44.374L24 6.456 4.838 29H15v7h2v-9H9.162L24 9.544 38.838 27H32v2h4.461a24.989 24.989 0 0 0 22.4 44.374L76 93.544zM27 50a23 23 0 1 1 23 23 23.026 23.026 0 0 1-23-23z"
             id="Path_18973" />
        </g>
      </g>
      <text
         xml:space="preserve"
         style="font-style:normal;font-variant:normal;font-weight:normal;font-stretch:normal;font-size:32px;line-height:1.25;font-family:Impact;-inkscape-font-specification:'Impact, Normal';font-variant-ligatures:normal;font-variant-caps:normal;font-variant-numeric:normal;fill:#666666;fill-opacity:1;"
         x="44.924671"
         y="62.170025"
         id="text2309"><tspan
           sodipodi:role="line"
           id="tspan2307"
           x="44.924671"
           y="62.170025">J</tspan></text>
    </g>
  </g>
  <path
     id="Rectangle_4668"
     d="M0 0h100v100H0z"
     class="cls-3"
     data-name="Rectangle 4668" />
</svg>
