<?xml version="1.0" encoding="UTF-8" standalone="no"?>
<svg
   id="ic_empty_dark_multisend"
   width="100"
   height="100"
   viewBox="0 0 100 100"
   version="1.1"
   sodipodi:docname="img-empty-dark-multisend.svg"
   inkscape:version="1.1 (c68e22c387, 2021-05-23)"
   xmlns:inkscape="http://www.inkscape.org/namespaces/inkscape"
   xmlns:sodipodi="http://sodipodi.sourceforge.net/DTD/sodipodi-0.dtd"
   xmlns="http://www.w3.org/2000/svg"
   xmlns:svg="http://www.w3.org/2000/svg">
  <sodipodi:namedview
     id="namedview25"
     pagecolor="#ffffff"
     bordercolor="#666666"
     borderopacity="1.0"
     inkscape:pageshadow="2"
     inkscape:pageopacity="0.0"
     inkscape:pagecheckerboard="0"
     showgrid="false"
     inkscape:zoom="23.532514"
     inkscape:cx="48.231141"
     inkscape:cy="43.408027"
     inkscape:window-width="1920"
     inkscape:window-height="1017"
     inkscape:window-x="-8"
     inkscape:window-y="-8"
     inkscape:window-maximized="1"
     inkscape:current-layer="ic_empty_dark_multisend" />
  <defs
     id="defs4">
    <style
       type="text/css"
       id="style2">
            .cls-1{fill:#413d4a}.cls-2{fill:#a09ea5}.cls-3{fill:none}
        </style>
  </defs>
  <g
     id="Group_9062"
     data-name="Group 9062">
    <g
       id="Group_9060"
       data-name="Group 9060">
      <path
         id="Rectangle_4717"
         d="M 0,0 H 10 V 9 H 0 Z"
         class="cls-1"
         data-name="Rectangle 4717"
         transform="translate(45,18)" />
      <g
         id="Group_9059"
         data-name="Group 9059">
        <path
           id="Rectangle_4718"
           d="M 0,0 H 6 V 10 H 0 Z"
           class="cls-1"
           data-name="Rectangle 4718"
           transform="translate(14,66)" />
        <path
           id="Rectangle_4719"
           d="M 0,0 H 6 V 10 H 0 Z"
           class="cls-1"
           data-name="Rectangle 4719"
           transform="translate(80,66)" />
        <path
           id="Rectangle_4720"
           d="M 0,0 H 6 V 10 H 0 Z"
           class="cls-1"
           data-name="Rectangle 4720"
           transform="translate(47,66)" />
      </g>
    </g>
    <g
       id="Group_9061"
       data-name="Group 9061">
      <path
         id="Rectangle_4722"
         d="M 0,0 H 2 V 4 H 0 Z"
         class="cls-2"
         data-name="Rectangle 4722"
         transform="translate(67,40)" />
      <circle
         id="Ellipse_643"
         cx="1"
         cy="1"
         r="1"
         class="cls-2"
         data-name="Ellipse 643"
         transform="translate(49,72)" />
      <circle
         id="Ellipse_644"
         cx="1"
         cy="1"
         r="1"
         class="cls-2"
         data-name="Ellipse 644"
         transform="translate(82,72)" />
      <path
         id="Rectangle_4723"
         d="M 0,0 H 4 V 2 H 0 Z"
         class="cls-2"
         data-name="Rectangle 4723"
         transform="translate(32,58)" />
      <path
         id="Path_19007"
         d="m 16,65 h -3 v 3 H 7 v 4 h 2 v -2 h 4 v 7 h 8 v -7 h 4 V 91 H 9 V 76 H 7 V 93 H 27 V 68 H 21 V 65 H 18 V 60 H 28 V 58 H 16 Z m 3,2 v 8 h -4 v -8 z"
         class="cls-2"
         data-name="Path 19007" />
      <circle
         id="Ellipse_645"
         cx="1"
         cy="1"
         r="1"
         class="cls-2"
         data-name="Ellipse 645"
         transform="translate(16,72)" />
      <path
         id="Path_19008"
         d="M 87,68 V 65 H 84 V 58 H 51 v -5 h 18 v -5 h -2 v 3 H 33 V 28 h 34 v 8 h 2 v -8 h 4 V 17 H 59.46 A 5.994,5.994 0 1 0 50,9.69 5.995,5.995 0 1 0 40.54,17 H 27 v 11 h 4 v 25 h 18 v 5 h -9 v 2 h 9 v 5 h -3 v 3 h -6 v 16 h 2 V 70 h 4 v 7 h 8 v -7 h 4 V 91 H 42 v -3 h -2 v 5 H 60 V 68 h -6 v -3 h -3 v -5 h 31 v 5 h -3 v 3 h -6 v 12 h 2 V 70 h 4 v 7 h 8 v -7 h 4 V 91 H 75 v -7 h -2 v 9 H 93 V 68 Z M 71,19 v 7 H 56 V 19 Z M 51,13 a 4,4 0 1 1 4,4 h -4 z m 0,6 h 3 v 7 H 46 V 19 Z M 45,9 a 4,4 0 0 1 4,4 v 4 H 45 A 4,4 0 0 1 45,9 Z M 29,26 v -7 h 15 v 7 z m 23,41 v 8 h -4 v -8 z m 33,8 h -4 v -8 h 4 z"
         class="cls-2"
         data-name="Path 19008" />
    </g>
  </g>
  <path
     id="Rectangle_4724"
     d="M0 0h100v100H0z"
     class="cls-3"
     data-name="Rectangle 4724" />
  <text
     xml:space="preserve"
     style="font-style:normal;font-variant:normal;font-weight:normal;font-stretch:normal;font-size:20px;line-height:1.25;font-family:Impact;-inkscape-font-specification:'Impact, Normal';font-variant-ligatures:normal;font-variant-caps:normal;font-variant-numeric:normal;font-variant-east-asian:normal;fill:#a09ea5;fill-opacity:1"
     x="46.694218"
     y="46.634548"
     id="text2988"><tspan
       sodipodi:role="line"
       id="tspan2986"
       x="46.694218"
       y="46.634548">J</tspan></text>
</svg>
