<?xml version="1.0" encoding="UTF-8" standalone="no"?>
<svg
   width="300px"
   height="100px"
   viewBox="0 0 300 100"
   version="1.1"
   id="svg27"
   sodipodi:docname="img-logo-jokecoin.svg"
   inkscape:version="1.1 (c68e22c387, 2021-05-23)"
   xmlns:inkscape="http://www.inkscape.org/namespaces/inkscape"
   xmlns:sodipodi="http://sodipodi.sourceforge.net/DTD/sodipodi-0.dtd"
   xmlns="http://www.w3.org/2000/svg"
   xmlns:svg="http://www.w3.org/2000/svg"
   xmlns:rdf="http://www.w3.org/1999/02/22-rdf-syntax-ns#"
   xmlns:cc="http://creativecommons.org/ns#"
   xmlns:dc="http://purl.org/dc/elements/1.1/">
  <defs
     id="defs31">
    <rect
       x="91.429308"
       y="8.0201147"
       width="194.08678"
       height="84.211204"
       id="rect120956" />
    <rect
       x="95.274102"
       y="19.281664"
       width="198.77127"
       height="61.247637"
       id="rect104874" />
    <rect
       x="94.706994"
       y="23.251418"
       width="186.2949"
       height="64.36673"
       id="rect82706" />
    <rect
       x="92.438563"
       y="13.610586"
       width="186.2949"
       height="71.172023"
       id="rect79356" />
    <rect
       x="93.856333"
       y="17.58034"
       width="195.65217"
       height="66.918715"
       id="rect75984" />
    <rect
       x="92.155009"
       y="17.013233"
       width="197.9206"
       height="64.650284"
       id="rect71490" />
    <rect
       x="100.09452"
       y="14.177694"
       width="131.85255"
       height="75.708885"
       id="rect67942" />
    <rect
       x="104.34783"
       y="25.519849"
       width="186.01134"
       height="54.15879"
       id="rect61974" />
    <rect
       x="100.94518"
       y="22.967864"
       width="182.32514"
       height="59.26276"
       id="rect57524" />
    <rect
       x="105.19849"
       y="13.89414"
       width="176.37051"
       height="70.888469"
       id="rect50654" />
    <rect
       x="89.035917"
       y="14.461248"
       width="191.39887"
       height="69.187146"
       id="rect46820" />
    <rect
       x="94.706994"
       y="15.879017"
       width="192.81664"
       height="68.336484"
       id="rect26890" />
    <rect
       x="98.393195"
       y="25.236295"
       width="45.36862"
       height="49.05482"
       id="rect18128" />
  </defs>
  <sodipodi:namedview
     id="namedview29"
     pagecolor="#ffffff"
     bordercolor="#666666"
     borderopacity="1.0"
     inkscape:pageshadow="2"
     inkscape:pageopacity="0.0"
     inkscape:pagecheckerboard="0"
     showgrid="false"
     inkscape:zoom="3.5266667"
     inkscape:cx="135.53875"
     inkscape:cy="57.136106"
     inkscape:window-width="1920"
     inkscape:window-height="1017"
     inkscape:window-x="1912"
     inkscape:window-y="-8"
     inkscape:window-maximized="1"
     inkscape:current-layer="svg27" />
  <!-- Generator: Sketch 53.2 (72643) - https://sketchapp.com -->
  <title
     id="title2">Artboard</title>
  <desc
     id="desc4">Created with Sketch.</desc>
  <g
     id="Artboard"
     stroke="none"
     stroke-width="1"
     fill="none"
     fill-rule="evenodd">
    <g
       id="JokeCoin_Logo-01"
       transform="translate(5,6.966292)"
       fill-rule="nonzero">
      <path
         d="M 35.464152,0.03370787 0,7.3693978 V 56.012848 c 0,7.121983 7.373356,13.852242 15.358081,19.086984 6.257076,4.059569 12.804411,7.620776 19.566398,10.718879 l 0.575304,0.214997 0.575303,-0.214997 C 37.513779,85.284659 71,71.183021 71,56.012848 V 7.3693978 Z"
         id="Shape"
         fill="#ffffff" />
      <path
         d="M 35.464152,0.03370787 0,7.3693978 V 56.012848 c 0,7.121983 7.373356,13.852242 15.358081,19.086984 6.257076,4.059569 12.804411,7.620776 19.566398,10.718879 l 0.575304,0.214997 0.575303,-0.214997 C 37.513779,85.284659 71,71.183021 71,56.012848 V 7.3693978 Z M 68.123048,56.012848 c 0,10.611811 -23.055153,21.829053 -32.658896,25.568277 l -0.467543,-0.178018 -0.17989,-0.07138 -0.323717,-0.142327 -0.179891,-0.07138 -0.323717,-0.142328 -0.107761,-0.03569 -0.395847,-0.178017 -0.10776,-0.03569 -0.431478,-0.178017 -0.07213,-0.03569 -0.467543,-0.178018 h -0.0352 l -0.539673,-0.214996 h -0.03607 C 27.012319,78.018628 20.790005,74.920525 15.322885,71.288369 l -0.647434,-0.427413 -0.647434,-0.463104 -0.611368,-0.427413 -0.03606,-0.03569 -0.575304,-0.427413 -0.03606,-0.03569 -0.576172,-0.423973 -0.03606,-0.03569 -0.575304,-0.427413 -0.07213,-0.03569 -0.539673,-0.391724 -0.07213,-0.03569 -0.503608,-0.391724 -0.07213,-0.07138 L 9.8544606,67.266639 9.7823304,67.19526 9.3508528,66.803536 9.2430921,66.732157 8.8472451,66.340433 8.7394843,66.233795 8.3436374,65.842071 8.2358766,65.735432 7.8400296,65.379398 7.7322689,65.272759 7.372487,64.916725 7.2647262,64.774397 6.9410094,64.418362 6.8332487,64.276034 6.5095319,63.92 6.4017711,63.777672 6.1141194,63.421637 5.9702936,63.279309 5.718707,62.958964 5.5748811,62.780947 5.3232945,62.460602 5.1794687,62.282584 4.9622091,61.962239 4.8544483,61.784222 4.6371887,61.463876 4.529428,61.24888 C 4.4572978,61.142241 4.4216672,61.033883 4.349537,60.963794 L 4.2057112,60.748797 c -0.06202,-0.08741 -0.1104973,-0.1835 -0.1438259,-0.285086 L 3.9541246,60.248715 C 3.9180595,60.142076 3.8463638,60.070697 3.8102987,59.963629 3.7820495,59.888442 3.7459329,59.816385 3.702538,59.748632 3.6607918,59.655861 3.6248047,59.560655 3.5947772,59.463546 3.5587121,59.356908 3.522647,59.321219 3.4870164,59.21415 3.4578684,59.12831 3.4218334,59.044912 3.3792557,58.964754 c -0.040286,-0.07767 -0.064792,-0.162398 -0.07213,-0.249396 0,-0.07138 -0.07213,-0.178018 -0.07213,-0.249397 -0.00708,-0.08705 -0.031599,-0.171825 -0.07213,-0.249396 C 3.1268,58.145186 3.1268,58.074237 3.090735,57.967169 3.05467,57.860101 3.05467,57.789152 3.018605,57.682083 2.991704,57.613653 2.979425,57.540448 2.98254,57.467086 c 0,-0.07138 -0.036065,-0.178017 -0.036065,-0.285085 0,-0.107069 -0.036065,-0.142328 -0.036065,-0.214997 -0.01047,-0.109338 -0.034701,-0.216952 -0.07213,-0.320345 -0.036065,-0.106639 0,-0.106639 0,-0.178018 V 9.9708588 L 35.322499,4.8066363 h 0.287652 l 32.479005,5.1642225 0.03606,46.0441392 h -0.0022 z"
         id="path7"
         fill="#5e4778" />
      <path
         d="M 35.499784,8.0337079 11.04248,11.970444 6,12.757359 v 41.907004 c 0,9.698371 20.846399,19.969319 29.499784,23.369345 5.041616,-1.968368 14.195664,-6.26291 20.953961,-11.416101 0.500663,-0.393674 1.036748,-0.787348 1.501988,-1.181021 2.324042,-1.896634 4.254984,-3.900869 5.506857,-5.940539 C 64.428061,57.921353 65,56.310792 65,54.699366 V 12.757359 Z M 24.987165,63.792318 c -19.9914433,-47.172407 -9.995722,-23.586203 0,0 z"
         id="path9"
         fill="#5e4778"
         sodipodi:nodetypes="cccsccccscccc" />
      <path
         d="M 36.033415,0.03370787 V 4.8088567 h 0.141799 l 32.023501,5.166625 V 56.001894 C 68.198715,66.618641 45.468421,77.841101 36,81.582065 v 4.451643 l 0.567197,-0.215097 C 37.985618,85.284311 71,71.176112 71,55.998882 V 7.3728105 Z"
         id="Path"
         fill="#5e4778" />
      <path
         d="M 65,54.276845 V 12.718575 L 35.49636,8.0337079 11,11.937764 c 1.14446,9.121178 4.541979,21.720008 13.947372,31.621997 C 33.938075,30.051125 61.804557,61.53199 65,54.276845 Z"
         id="path12"
         fill="#5e4778"
         sodipodi:nodetypes="cccccc" />
      <path
         d="m 34.539468,81.403107 -0.177358,-0.07138 -0.31916,-0.106638 -0.177358,-0.07138 -0.319159,-0.142328 -0.106244,-0.03569 -0.390274,-0.178018 -0.106244,-0.03569 -0.425403,-0.178017 -0.07111,-0.03569 -0.460961,-0.214997 h -0.07026 L 31.38386,80.118287 H 31.3483 C 26.667585,78.017338 20.532442,74.919235 15.142291,71.25139 l -0.638319,-0.427414 -0.638319,-0.498362 -0.602761,-0.427414 -0.03556,-0.03569 -0.567205,-0.427413 -0.03556,-0.03569 -0.567204,-0.427413 -0.03556,-0.03569 -0.567204,-0.427413 -0.07112,-0.03569 -0.532075,-0.391724 -0.07112,-0.03569 -0.496517,-0.391724 -0.07069,-0.06837 L 9.752117,67.193969 9.681002,67.122589 9.2556212,66.730867 9.1493776,66.659488 8.7591035,66.267764 8.6528599,66.161126 8.2625858,65.769402 8.1563422,65.662763 7.7660681,65.306729 7.6598245,65.20009 7.3051078,64.844056 7.1988641,64.701728 6.8797048,64.345693 6.7734611,64.203365 6.4543018,63.847331 6.3480581,63.705003 6.0288988,63.419917 5.8870978,63.277589 5.6390531,62.957244 5.4972521,62.779227 5.2492075,62.458881 5.1074065,62.280864 4.8932055,61.960519 4.7869619,61.782502 4.572761,61.462156 4.4665173,61.284139 C 4.3954026,61.177501 4.3602737,61.069142 4.289159,60.999053 L 4.147358,60.784057 4.005557,60.498971 3.8993133,60.283974 C 3.863756,60.177336 3.7930697,60.105957 3.7575123,59.998888 3.7296608,59.923702 3.6940527,59.851644 3.6512687,59.783892 3.6101102,59.69112 3.5746298,59.595915 3.545025,59.498806 3.5094677,59.392167 3.4739103,59.356478 3.4387814,59.24941 3.4100434,59.16357 3.3745164,59.080171 3.3325377,59.000013 c -0.044321,-0.07576 -0.068787,-0.161568 -0.071115,-0.249396 0,-0.106638 -0.071115,-0.214997 -0.071115,-0.285086 -0.00698,-0.08704 -0.031154,-0.171825 -0.071115,-0.249396 -0.035557,-0.07138 -0.035557,-0.142328 -0.071115,-0.249396 -0.035557,-0.107069 -0.035557,-0.178018 -0.071115,-0.285086 -0.026522,-0.06843 -0.038629,-0.141635 -0.035557,-0.214997 0,-0.07138 -0.035557,-0.178017 -0.035557,-0.285085 0,-0.107069 -0.035557,-0.142328 -0.035557,-0.214997 -0.010323,-0.109338 -0.034213,-0.216952 -0.071115,-0.320345 -0.035557,-0.106639 0,-0.106639 0,-0.178018 V 9.9708588 L 34.825212,4.8066363 h 0.141801 V 0.03370787 L 0,7.3693978 V 56.012848 c 0,7.121983 7.2695504,13.852242 15.141862,19.086984 6.168986,4.059569 12.624145,7.620776 19.290934,10.718879 L 35,86.033708 v -4.452583 l -0.46096,-0.178018"
         id="path14"
         fill="#3d3144" />
      <path
         d="M 35.775676,52.11283 C 32.132908,50.140658 35.070163,52.355178 25.129422,43.889435 15.636436,33.87872 12.243779,21.186164 11.089639,12.033708 L 6,12.819869 v 41.866874 c 0,9.689083 21.041362,19.950195 29.775676,23.346965 5.088767,-1.966483 14.328427,-6.256913 21.14993,-11.405169 0.505345,-0.393297 1.046444,-0.786593 1.516035,-1.17989 C 60.787419,63.553832 62.736419,61.551516 64,59.5138 52.197862,58.905938 42.994392,56.152862 35.776112,52.11283"
         id="path16"
         fill="#3d3144"
         sodipodi:nodetypes="ccccsccccc" />
    </g>
  </g>
  <text
     xml:space="preserve"
     id="text18126"
     style="fill:black;fill-opacity:1;line-height:1.25;stroke:none;font-family:sans-serif;font-style:normal;font-weight:normal;font-size:40px;white-space:pre;shape-inside:url(#rect18128)" />
  <text
     xml:space="preserve"
     id="text26888"
     style="fill:black;fill-opacity:1;line-height:1.25;stroke:none;font-family:sans-serif;font-style:normal;font-weight:normal;font-size:40px;white-space:pre;shape-inside:url(#rect26890)" />
  <text
     xml:space="preserve"
     id="text46818"
     style="fill:black;fill-opacity:1;line-height:1.25;stroke:none;font-family:sans-serif;font-style:normal;font-weight:normal;font-size:40px;white-space:pre;shape-inside:url(#rect46820)" />
  <text
     xml:space="preserve"
     id="text50652"
     style="font-style:normal;font-weight:normal;font-size:40px;line-height:1.25;font-family:sans-serif;white-space:pre;shape-inside:url(#rect50654);fill:#000000;fill-opacity:1;stroke:none" />
  <text
     xml:space="preserve"
     id="text57522"
     style="font-style:normal;font-weight:normal;font-size:40px;line-height:1.25;font-family:sans-serif;white-space:pre;shape-inside:url(#rect57524);fill:#ffffff;fill-opacity:1;stroke:none" />
  <text
     xml:space="preserve"
     id="text61972"
     style="font-style:normal;font-weight:normal;font-size:40px;line-height:1.25;font-family:sans-serif;white-space:pre;shape-inside:url(#rect61974);fill:#000000;fill-opacity:1;stroke:none" />
  <text
     xml:space="preserve"
     id="text67940"
     style="fill:black;fill-opacity:1;line-height:1.25;stroke:none;font-family:sans-serif;font-style:normal;font-weight:normal;font-size:40px;white-space:pre;shape-inside:url(#rect67942)" />
  <text
     xml:space="preserve"
     id="text71488"
     style="font-style:normal;font-weight:normal;font-size:40px;line-height:1.25;font-family:sans-serif;white-space:pre;shape-inside:url(#rect71490);fill:#000000;fill-opacity:1;stroke:none" />
  <text
     xml:space="preserve"
     id="text75982"
     style="fill:#000000;fill-opacity:1;line-height:1.25;stroke:none;font-family:Impact;font-style:normal;font-weight:normal;font-size:192px;white-space:pre;shape-inside:url(#rect75984);-inkscape-font-specification:'Impact, Normal';font-stretch:normal;font-variant:normal;font-variant-ligatures:normal;font-variant-caps:normal;font-variant-numeric:normal;font-variant-east-asian:normal" />
  <text
     xml:space="preserve"
     id="text79354"
     style="fill:black;fill-opacity:1;line-height:1.25;stroke:none;font-family:sans-serif;font-style:normal;font-weight:normal;font-size:40px;white-space:pre;shape-inside:url(#rect79356)" />
  <text
     xml:space="preserve"
     id="text82704"
     style="fill:#ffffff;fill-opacity:1;line-height:1.25;stroke:none;font-family:Impact;font-style:normal;font-weight:normal;font-size:192px;white-space:pre;shape-inside:url(#rect82706);-inkscape-font-specification:'Impact, Normal';font-stretch:normal;font-variant:normal;font-variant-ligatures:normal;font-variant-caps:normal;font-variant-numeric:normal;font-variant-east-asian:normal" />
  <text
     xml:space="preserve"
     style="font-style:normal;font-weight:normal;font-size:74.6667px;line-height:1.25;font-family:Impact;fill:#ffffff;fill-opacity:1;stroke:none;-inkscape-font-specification:'Impact, Normal';font-stretch:normal;font-variant:normal;font-variant-ligatures:normal;font-variant-caps:normal;font-variant-numeric:normal;font-variant-east-asian:normal"
     x="111.72023"
     y="72.022682"
     id="text86188"><tspan
       sodipodi:role="line"
       id="tspan96760"></tspan></text>
  <text
     xml:space="preserve"
     id="text104872"
     style="font-size:96px;line-height:1.25;font-family:Impact;-inkscape-font-specification:'Impact, Normal';white-space:pre;shape-inside:url(#rect104874);font-weight:normal;font-style:normal;font-stretch:normal;font-variant:normal;font-variant-ligatures:normal;font-variant-caps:normal;font-variant-numeric:normal;font-variant-east-asian:normal" />
  <text
     xml:space="preserve"
     id="text120954"
     style="font-size:85.3333px;line-height:1.25;font-family:Impact;-inkscape-font-specification:'Impact, Normal';white-space:pre;shape-inside:url(#rect120956);font-weight:normal;font-style:normal;font-stretch:normal;font-variant:normal;font-variant-ligatures:normal;font-variant-caps:normal;font-variant-numeric:normal;font-variant-east-asian:normal"><tspan
       x="91.429688"
       y="177.65616"
       id="tspan133166"><tspan
         dx="0 28.25 15.041668 46.624996 45.791664 15.041672"
         style="font-size:85.3333px"
         id="tspan133164">J OK E</tspan></tspan></text>
  <text
     xml:space="preserve"
     style="font-style:normal;font-variant:normal;font-weight:normal;font-stretch:normal;font-size:85.3333px;line-height:1.25;font-family:Impact;-inkscape-font-specification:'Impact, Normal';font-variant-ligatures:normal;font-variant-caps:normal;font-variant-numeric:normal;font-variant-east-asian:normal;fill:#ffffff"
     x="109.07356"
     y="82.607178"
     id="text123272"><tspan
       sodipodi:role="line"
       id="tspan123270"
       x="109.07356"
       y="82.607178">JOKE</tspan></text>
  <text
     xml:space="preserve"
     style="font-style:normal;font-variant:normal;font-weight:normal;font-stretch:normal;font-size:66.6667px;line-height:1.25;font-family:Impact;-inkscape-font-specification:'Impact, Normal';font-variant-ligatures:normal;font-variant-caps:normal;font-variant-numeric:normal;font-variant-east-asian:normal;fill:#ffffff"
     x="27.942345"
     y="74.586395"
     id="text129190"><tspan
       sodipodi:role="line"
       id="tspan129188"
       x="27.942345"
       y="74.586395">J</tspan></text>
  <metadata
     id="metadata133104">
    <rdf:RDF>
      <cc:Work
         rdf:about="">
        <dc:title>Artboard</dc:title>
      </cc:Work>
    </rdf:RDF>
  </metadata>
</svg>
