<?xml version="1.0" encoding="UTF-8" standalone="no"?>
<svg
   id="ic_empty_Dark_transactions"
   width="100"
   height="100"
   viewBox="0 0 100 100"
   version="1.1"
   sodipodi:docname="img-empty-dark-transactions.svg"
   inkscape:version="1.1 (c68e22c387, 2021-05-23)"
   xmlns:inkscape="http://www.inkscape.org/namespaces/inkscape"
   xmlns:sodipodi="http://sodipodi.sourceforge.net/DTD/sodipodi-0.dtd"
   xmlns="http://www.w3.org/2000/svg"
   xmlns:svg="http://www.w3.org/2000/svg">
  <sodipodi:namedview
     id="namedview22"
     pagecolor="#ffffff"
     bordercolor="#666666"
     borderopacity="1.0"
     inkscape:pageshadow="2"
     inkscape:pageopacity="0.0"
     inkscape:pagecheckerboard="0"
     showgrid="false"
     inkscape:zoom="16.64"
     inkscape:cx="45.072115"
     inkscape:cy="45.643029"
     inkscape:window-width="1920"
     inkscape:window-height="1017"
     inkscape:window-x="-8"
     inkscape:window-y="-8"
     inkscape:window-maximized="1"
     inkscape:current-layer="ic_empty_Dark_transactions" />
  <defs
     id="defs4">
    <style
       type="text/css"
       id="style2">
            .cls-1{fill:#413d4a}.cls-2{fill:#a09ea5}.cls-3{fill:none}
        </style>
  </defs>
  <g
     id="Group_9036"
     data-name="Group 9036">
    <path
       id="Path_18988"
       d="M 50,26 A 24,24 0 1 0 74,50 24,24 0 0 0 50,26 Z m 0,42 A 18,18 0 1 1 68,50 18,18 0 0 1 50,68 Z"
       class="cls-1"
       data-name="Path 18988" />
    <g
       id="Group_9035"
       data-name="Group 9035">
      <g
         id="Group_9033"
         data-name="Group 9033">
        <g
           id="Group_9032"
           data-name="Group 9032" />
      </g>
      <g
         id="Group_9034"
         data-name="Group 9034">
        <path
           id="Path_18990"
           d="M 50,31 A 19,19 0 1 0 69,50 19.021,19.021 0 0 0 50,31 Z m 0,36 A 17,17 0 1 1 67,50 17.019,17.019 0 0 1 50,67 Z"
           class="cls-2"
           data-name="Path 18990" />
        <path
           id="Rectangle_4693"
           d="M 0,0 H 2 V 4 H 0 Z"
           class="cls-2"
           data-name="Rectangle 4693"
           transform="translate(83,56)" />
        <path
           id="Rectangle_4694"
           d="M 0,0 H 2 V 8 H 0 Z"
           class="cls-2"
           data-name="Rectangle 4694"
           transform="translate(83,44)" />
        <path
           id="Rectangle_4695"
           d="M 0,0 H 2 V 8 H 0 Z"
           class="cls-2"
           data-name="Rectangle 4695"
           transform="translate(15,48)" />
        <path
           id="Rectangle_4696"
           d="M 0,0 H 2 V 4 H 0 Z"
           class="cls-2"
           data-name="Rectangle 4696"
           transform="translate(15,40)" />
        <path
           id="Path_18991"
           d="M 95.162,71 H 85 v -7 h -2 v 9 h 7.838 L 76,90.456 61.162,73 H 68 V 71 H 63.539 A 24.989,24.989 0 0 0 41.139,26.626 L 24,6.456 4.838,29 H 15 v 7 h 2 V 27 H 9.162 L 24,9.544 38.838,27 H 32 v 2 h 4.461 a 24.989,24.989 0 0 0 22.4,44.374 L 76,93.544 Z M 27,50 A 23,23 0 1 1 50,73 23.026,23.026 0 0 1 27,50 Z"
           class="cls-2"
           data-name="Path 18991" />
      </g>
    </g>
  </g>
  <path
     id="Rectangle_4697"
     d="M0 0h100v100H0z"
     class="cls-3"
     data-name="Rectangle 4697" />
  <text
     xml:space="preserve"
     style="font-style:normal;font-variant:normal;font-weight:normal;font-stretch:normal;font-size:32px;line-height:1.25;font-family:Impact;-inkscape-font-specification:'Impact, Normal';font-variant-ligatures:normal;font-variant-caps:normal;font-variant-numeric:normal;font-variant-east-asian:normal;fill:#000000;fill-opacity:0"
     x="44.891827"
     y="62.13942"
     id="text2309"><tspan
       sodipodi:role="line"
       id="tspan2307"
       x="44.891827"
       y="62.13942">J</tspan></text>
</svg>
