<?xml version="1.0" encoding="UTF-8" standalone="no"?>
<svg
   id="ic_empty_Dark_zjoke"
   width="100"
   height="100"
   viewBox="0 0 100 100"
   version="1.1"
   sodipodi:docname="img-empty-privacy-dark.svg"
   inkscape:version="1.1 (c68e22c387, 2021-05-23)"
   xmlns:inkscape="http://www.inkscape.org/namespaces/inkscape"
   xmlns:sodipodi="http://sodipodi.sourceforge.net/DTD/sodipodi-0.dtd"
   xmlns="http://www.w3.org/2000/svg"
   xmlns:svg="http://www.w3.org/2000/svg">
  <sodipodi:namedview
     id="namedview21"
     pagecolor="#ffffff"
     bordercolor="#666666"
     borderopacity="1.0"
     inkscape:pageshadow="2"
     inkscape:pageopacity="0.0"
     inkscape:pagecheckerboard="0"
     showgrid="false"
     inkscape:zoom="11.766257"
     inkscape:cx="37.225093"
     inkscape:cy="60.894472"
     inkscape:window-width="1920"
     inkscape:window-height="1017"
     inkscape:window-x="-8"
     inkscape:window-y="-8"
     inkscape:window-maximized="1"
     inkscape:current-layer="ic_empty_Dark_zjoke" />
  <defs
     id="defs4">
    <style
       type="text/css"
       id="style2">
            .cls-1{fill:#413d4a}.cls-2{fill:#a09ea5}.cls-3{fill:none}
        </style>
  </defs>
  <g
     id="Group_9081"
     data-name="Group 9081">
    <path
       id="Path_19026"
       d="M50 26a24 24 0 1 0 24 24 24 24 0 0 0-24-24zm0 42a18 18 0 1 1 18-18 18 18 0 0 1-18 18z"
       class="cls-1"
       data-name="Path 19026" />
    <g
       id="Group_9080"
       data-name="Group 9080">
      <g
         id="Group_9078"
         data-name="Group 9078">
        <path
           id="Path_19027"
           d="M50 31a19 19 0 1 0 19 19 19.021 19.021 0 0 0-19-19zm0 36a17 17 0 1 1 17-17 17.019 17.019 0 0 1-17 17z"
           class="cls-2"
           data-name="Path 19027" />
        <path
           id="Rectangle_4744"
           d="M0 0h2v4H0z"
           class="cls-2"
           data-name="Rectangle 4744"
           transform="translate(83 56)" />
        <path
           id="Rectangle_4745"
           d="M0 0h2v8H0z"
           class="cls-2"
           data-name="Rectangle 4745"
           transform="translate(83 44)" />
        <path
           id="Rectangle_4746"
           d="M0 0h2v8H0z"
           class="cls-2"
           data-name="Rectangle 4746"
           transform="translate(15 48)" />
        <path
           id="Rectangle_4747"
           d="M0 0h2v4H0z"
           class="cls-2"
           data-name="Rectangle 4747"
           transform="translate(15 40)" />
        <path
           id="Path_19028"
           d="M95.162 71H85v-7h-2v9h7.838L76 90.456 61.162 73H68v-2h-4.461a24.989 24.989 0 0 0-22.4-44.374L24 6.456 4.838 29H15v7h2v-9H9.162L24 9.544 38.838 27H32v2h4.461a24.989 24.989 0 0 0 22.4 44.374L76 93.544zM27 50a23 23 0 1 1 23 23 23.026 23.026 0 0 1-23-23z"
           class="cls-2"
           data-name="Path 19028" />
      </g>
      <g
         id="Group_9079"
         data-name="Group 9079">
        <path
           id="Path_19029"
           d="m 57.211,46.874 c -38.140667,-31.249333 -19.070333,-15.624667 0,0 z"
           class="cls-2"
           data-name="Path 19029"
           sodipodi:nodetypes="cc" />
      </g>
    </g>
  </g>
  <path
     id="Rectangle_4748"
     d="M0 0h100v100H0z"
     class="cls-3"
     data-name="Rectangle 4748" />
  <text
     xml:space="preserve"
     style="font-style:normal;font-variant:normal;font-weight:normal;font-stretch:normal;font-size:24px;line-height:1.25;font-family:Impact;-inkscape-font-specification:'Impact, Normal';font-variant-ligatures:normal;font-variant-caps:normal;font-variant-numeric:normal;font-variant-east-asian:normal;fill:#413d4a;fill-opacity:1"
     x="41.219566"
     y="58.897236"
     id="text21519"><tspan
       sodipodi:role="line"
       id="tspan21517"
       x="41.219566"
       y="58.897236">ZJ</tspan></text>
</svg>
