<?xml version="1.0" encoding="UTF-8" standalone="no"?>
<svg
   id="ic_empty_zjoke"
   width="100"
   height="100"
   viewBox="0 0 100 100"
   version="1.1"
   sodipodi:docname="img-empty-privacy.svg"
   inkscape:version="1.1 (c68e22c387, 2021-05-23)"
   xmlns:inkscape="http://www.inkscape.org/namespaces/inkscape"
   xmlns:sodipodi="http://sodipodi.sourceforge.net/DTD/sodipodi-0.dtd"
   xmlns="http://www.w3.org/2000/svg"
   xmlns:svg="http://www.w3.org/2000/svg">
  <sodipodi:namedview
     id="namedview21"
     pagecolor="#ffffff"
     bordercolor="#666666"
     borderopacity="1.0"
     inkscape:pageshadow="2"
     inkscape:pageopacity="0.0"
     inkscape:pagecheckerboard="0"
     showgrid="false"
     inkscape:zoom="8.32"
     inkscape:cx="46.394231"
     inkscape:cy="61.838942"
     inkscape:window-width="1920"
     inkscape:window-height="1017"
     inkscape:window-x="-8"
     inkscape:window-y="-8"
     inkscape:window-maximized="1"
     inkscape:current-layer="ic_empty_zjoke" />
  <defs
     id="defs4">
    <style
       type="text/css"
       id="style2">
            .cls-1{fill:#d6d6d6}.cls-2{fill:#666}.cls-3{fill:none}
        </style>
  </defs>
  <g
     id="Group_9086"
     data-name="Group 9086">
    <path
       id="Path_19031"
       d="M50 26a24 24 0 1 0 24 24 24 24 0 0 0-24-24zm0 42a18 18 0 1 1 18-18 18 18 0 0 1-18 18z"
       class="cls-1"
       data-name="Path 19031" />
    <g
       id="Group_9085"
       data-name="Group 9085">
      <g
         id="Group_9083"
         data-name="Group 9083">
        <path
           id="Path_19032"
           d="M50 31a19 19 0 1 0 19 19 19.021 19.021 0 0 0-19-19zm0 36a17 17 0 1 1 17-17 17.019 17.019 0 0 1-17 17z"
           class="cls-2"
           data-name="Path 19032" />
        <path
           id="Rectangle_4749"
           d="M0 0h2v4H0z"
           class="cls-2"
           data-name="Rectangle 4749"
           transform="translate(83 56)" />
        <path
           id="Rectangle_4750"
           d="M0 0h2v8H0z"
           class="cls-2"
           data-name="Rectangle 4750"
           transform="translate(83 44)" />
        <path
           id="Rectangle_4751"
           d="M0 0h2v8H0z"
           class="cls-2"
           data-name="Rectangle 4751"
           transform="translate(15 48)" />
        <path
           id="Rectangle_4752"
           d="M0 0h2v4H0z"
           class="cls-2"
           data-name="Rectangle 4752"
           transform="translate(15 40)" />
        <path
           id="Path_19033"
           d="M95.162 71H85v-7h-2v9h7.838L76 90.456 61.162 73H68v-2h-4.461a24.989 24.989 0 0 0-22.4-44.374L24 6.456 4.838 29H15v7h2v-9H9.162L24 9.544 38.838 27H32v2h4.461a24.989 24.989 0 0 0 22.4 44.374L76 93.544zM27 50a23 23 0 1 1 23 23 23.026 23.026 0 0 1-23-23z"
           class="cls-2"
           data-name="Path 19033" />
      </g>
      <g
         id="Group_9084"
         data-name="Group 9084" />
    </g>
  </g>
  <path
     id="Rectangle_4753"
     d="M0 0h100v100H0z"
     class="cls-3"
     data-name="Rectangle 4753" />
  <text
     xml:space="preserve"
     style="font-style:normal;font-variant:normal;font-weight:normal;font-stretch:normal;font-size:24px;line-height:1.25;font-family:Impact;-inkscape-font-specification:'Impact, Normal';font-variant-ligatures:normal;font-variant-caps:normal;font-variant-numeric:normal;font-variant-east-asian:normal;fill:#d6d6d6;fill-opacity:1"
     x="41.219376"
     y="58.897655"
     id="text21519"><tspan
       sodipodi:role="line"
       id="tspan21517"
       x="41.219376"
       y="58.897655">ZJ</tspan></text>
</svg>
